<svg xmlns="http://www.w3.org/2000/svg"
     width="1404" height="616"
     viewBox="0 0 1404 616">
  <path d="M 1104 297 L 1104 304 L 1103 305 L 1103 307 L 1104 308 L 1104 310 L 1103 311 L 1103 353 L 1104 354 L 1104 368 L 1103 369 L 1103 388 L 1104 389 L 1104 394 L 1103 395 L 1103 405 L 1104 406 L 1104 412 L 1103 413 L 1103 418 L 1104 420 L 1106 422 L 1162 422 L 1163 421 L 1171 421 L 1174 418 L 1176 417 L 1180 417 L 1183 414 L 1187 413 L 1195 405 L 1196 405 L 1196 404 L 1201 399 L 1202 396 L 1204 394 L 1206 389 L 1209 385 L 1209 382 L 1211 379 L 1211 376 L 1212 375 L 1212 370 L 1213 369 L 1213 338 L 1210 334 L 1209 327 L 1205 322 L 1205 320 L 1202 317 L 1201 314 L 1191 304 L 1189 304 L 1183 300 L 1179 300 L 1178 299 L 1176 299 L 1171 296 L 1158 296 L 1157 295 L 1133 295 L 1132 294 L 1109 294 Z M 1143 321 L 1145 321 L 1146 322 L 1150 322 L 1151 323 L 1153 322 L 1158 325 L 1161 325 L 1172 335 L 1172 336 L 1176 341 L 1176 373 L 1172 379 L 1172 382 L 1162 391 L 1160 392 L 1157 392 L 1150 395 L 1142 395 L 1140 394 L 1138 391 L 1138 341 L 1137 340 L 1137 326 L 1140 322 L 1142 322 Z M 596 297 L 596 313 L 595 314 L 595 317 L 596 318 L 596 343 L 595 344 L 595 418 L 596 419 L 596 421 L 598 422 L 609 422 L 610 423 L 612 423 L 613 422 L 675 422 L 678 420 L 679 409 L 678 408 L 678 397 L 676 393 L 674 392 L 669 392 L 668 393 L 658 393 L 657 392 L 631 393 L 629 391 L 629 374 L 630 373 L 669 373 L 671 372 L 672 370 L 672 354 L 673 353 L 673 351 L 672 350 L 671 346 L 668 344 L 630 344 L 628 342 L 628 325 L 630 323 L 655 323 L 656 324 L 669 324 L 673 321 L 673 319 L 674 318 L 674 310 L 673 309 L 673 303 L 674 302 L 675 302 L 677 304 L 677 306 L 679 309 L 679 312 L 680 313 L 680 321 L 683 324 L 683 326 L 684 327 L 684 332 L 686 334 L 687 336 L 687 339 L 688 340 L 688 345 L 692 351 L 692 356 L 695 360 L 695 363 L 696 364 L 696 369 L 699 374 L 699 377 L 700 378 L 700 384 L 703 388 L 703 390 L 704 391 L 704 397 L 707 401 L 707 403 L 708 404 L 708 408 L 711 412 L 711 415 L 712 416 L 712 419 L 713 421 L 715 422 L 743 422 L 745 420 L 746 418 L 746 414 L 749 409 L 750 399 L 753 395 L 753 388 L 757 380 L 757 374 L 758 373 L 758 370 L 759 369 L 759 367 L 761 363 L 761 359 L 762 358 L 764 359 L 764 361 L 765 362 L 765 364 L 767 367 L 767 370 L 768 371 L 768 376 L 771 380 L 771 383 L 772 384 L 772 390 L 775 394 L 776 404 L 779 408 L 779 412 L 780 413 L 780 418 L 781 420 L 784 422 L 798 422 L 799 423 L 809 423 L 810 422 L 814 421 L 817 418 L 817 412 L 821 406 L 821 397 L 825 391 L 825 384 L 826 383 L 826 381 L 829 377 L 829 372 L 830 371 L 830 367 L 833 362 L 833 356 L 834 355 L 834 352 L 837 348 L 838 339 L 841 336 L 841 331 L 842 330 L 842 327 L 845 322 L 845 319 L 847 315 L 847 312 L 849 309 L 849 302 L 850 301 L 850 298 L 849 296 L 847 295 L 844 295 L 843 294 L 840 294 L 839 295 L 825 295 L 823 294 L 822 295 L 818 295 L 816 297 L 815 299 L 815 303 L 812 308 L 812 313 L 808 321 L 808 328 L 807 329 L 807 332 L 804 337 L 804 344 L 803 345 L 803 349 L 800 355 L 800 362 L 798 364 L 797 364 L 794 361 L 794 358 L 793 357 L 793 351 L 792 350 L 792 348 L 790 344 L 790 341 L 789 340 L 789 332 L 786 328 L 786 326 L 785 325 L 785 319 L 782 314 L 781 303 L 778 297 L 775 295 L 753 295 L 748 302 L 748 308 L 744 314 L 744 319 L 740 327 L 739 337 L 736 342 L 736 350 L 735 351 L 735 354 L 733 358 L 733 361 L 732 363 L 730 364 L 729 363 L 729 360 L 728 359 L 728 355 L 725 349 L 725 341 L 724 340 L 724 338 L 722 335 L 722 332 L 721 331 L 721 323 L 717 314 L 717 306 L 714 301 L 713 297 L 711 295 L 686 295 L 685 294 L 682 294 L 681 295 L 678 295 L 676 297 L 674 297 L 668 294 L 647 294 L 646 295 L 599 295 Z M 426 293 L 424 295 L 420 297 L 419 301 L 416 305 L 416 309 L 412 317 L 412 321 L 411 322 L 411 324 L 408 328 L 408 333 L 406 337 L 404 339 L 404 343 L 400 351 L 399 357 L 396 360 L 395 367 L 393 369 L 391 377 L 388 381 L 388 386 L 387 387 L 387 389 L 384 392 L 384 396 L 382 400 L 380 402 L 379 410 L 376 414 L 376 420 L 378 422 L 407 422 L 409 420 L 410 416 L 413 412 L 413 407 L 417 401 L 417 396 L 419 394 L 423 394 L 424 393 L 439 393 L 440 394 L 444 394 L 446 393 L 447 394 L 449 394 L 451 396 L 452 398 L 452 405 L 455 409 L 455 411 L 456 412 L 456 416 L 460 420 L 460 421 L 462 422 L 491 422 L 492 421 L 495 421 L 496 420 L 497 416 L 496 415 L 496 413 L 493 409 L 493 405 L 490 402 L 490 400 L 489 399 L 489 395 L 487 393 L 485 389 L 485 385 L 482 381 L 481 375 L 478 371 L 478 369 L 477 368 L 477 364 L 474 360 L 474 358 L 473 357 L 473 353 L 470 349 L 470 347 L 469 346 L 469 342 L 465 334 L 465 329 L 461 321 L 461 316 L 459 314 L 457 310 L 457 303 L 455 301 L 453 296 L 449 295 L 448 294 L 435 294 L 434 293 Z M 364 296 L 357 296 L 356 295 L 349 295 L 348 294 L 318 294 L 317 293 L 311 293 L 310 294 L 301 294 L 295 297 L 294 299 L 294 337 L 293 338 L 293 352 L 294 353 L 293 355 L 293 385 L 294 386 L 294 391 L 293 392 L 293 402 L 294 403 L 294 416 L 295 417 L 296 421 L 298 422 L 327 422 L 329 420 L 329 417 L 330 416 L 330 410 L 329 409 L 329 395 L 330 394 L 329 383 L 330 381 L 334 378 L 340 380 L 341 379 L 345 379 L 346 378 L 351 379 L 352 378 L 356 378 L 357 377 L 362 377 L 367 373 L 371 373 L 374 370 L 375 370 L 385 359 L 386 354 L 389 350 L 389 340 L 390 339 L 389 320 L 387 318 L 385 313 L 383 312 L 381 310 L 381 309 L 372 300 L 368 299 Z M 333 321 L 344 321 L 349 325 L 350 325 L 355 331 L 355 341 L 353 343 L 352 346 L 346 351 L 343 351 L 342 352 L 336 352 L 335 353 L 331 353 L 330 352 L 330 324 Z M 1005 296 L 1003 299 L 999 300 L 988 309 L 988 310 L 980 319 L 980 322 L 976 327 L 976 331 L 972 339 L 972 346 L 971 347 L 971 357 L 970 358 L 970 372 L 971 373 L 971 376 L 972 377 L 972 383 L 975 386 L 976 388 L 976 392 L 979 395 L 980 399 L 984 403 L 984 404 L 998 417 L 1001 417 L 1006 421 L 1015 422 L 1016 423 L 1022 424 L 1023 425 L 1043 425 L 1044 424 L 1047 424 L 1050 422 L 1059 421 L 1062 418 L 1064 417 L 1067 417 L 1081 403 L 1082 400 L 1085 397 L 1085 395 L 1087 391 L 1089 389 L 1089 385 L 1093 377 L 1093 364 L 1094 363 L 1094 356 L 1093 355 L 1093 339 L 1089 331 L 1089 326 L 1086 323 L 1085 319 L 1082 316 L 1082 315 L 1072 305 L 1072 304 L 1071 304 L 1067 300 L 1063 299 L 1060 296 L 1056 296 L 1055 295 L 1053 295 L 1049 292 L 1017 292 L 1012 295 L 1010 295 L 1009 296 Z M 1026 321 L 1038 321 L 1042 324 L 1047 326 L 1048 328 L 1049 328 L 1052 331 L 1053 334 L 1055 336 L 1056 338 L 1056 342 L 1059 349 L 1059 356 L 1060 357 L 1060 359 L 1059 360 L 1059 366 L 1056 372 L 1056 378 L 1055 379 L 1055 381 L 1052 384 L 1052 386 L 1046 392 L 1042 392 L 1038 395 L 1036 394 L 1034 394 L 1033 395 L 1027 395 L 1026 394 L 1024 394 L 1022 392 L 1020 392 L 1010 381 L 1010 379 L 1009 378 L 1009 374 L 1006 370 L 1006 364 L 1005 363 L 1005 352 L 1006 351 L 1007 347 L 1009 345 L 1009 337 L 1013 332 L 1013 331 L 1019 325 L 1020 325 L 1023 322 L 1025 322 Z M 891 292 L 886 295 L 878 296 L 877 298 L 870 304 L 868 304 L 865 307 L 864 307 L 860 311 L 860 313 L 856 317 L 856 319 L 853 322 L 851 329 L 848 333 L 847 341 L 844 345 L 844 379 L 845 380 L 845 382 L 847 384 L 847 386 L 848 387 L 848 391 L 851 394 L 852 398 L 854 400 L 856 404 L 870 417 L 873 417 L 878 421 L 888 422 L 894 425 L 914 425 L 915 424 L 919 424 L 922 422 L 930 421 L 932 419 L 936 417 L 939 417 L 947 409 L 948 409 L 949 407 L 957 399 L 957 396 L 961 392 L 961 388 L 962 387 L 962 385 L 965 381 L 965 376 L 966 375 L 966 369 L 965 368 L 965 362 L 966 361 L 966 346 L 965 345 L 965 337 L 962 332 L 962 330 L 961 329 L 961 325 L 957 321 L 957 317 L 955 316 L 954 314 L 944 305 L 944 304 L 943 304 L 939 300 L 936 299 L 933 296 L 928 296 L 920 292 Z M 899 321 L 910 321 L 914 324 L 918 325 L 928 336 L 928 339 L 931 346 L 931 351 L 932 352 L 932 365 L 931 366 L 931 370 L 928 374 L 928 380 L 924 385 L 924 386 L 918 392 L 912 395 L 908 395 L 906 394 L 905 395 L 902 395 L 900 396 L 896 393 L 892 392 L 886 386 L 885 382 L 882 378 L 882 375 L 881 374 L 881 345 L 885 337 L 885 332 L 891 325 L 892 325 L 895 322 L 898 322 Z M 544 292 L 543 293 L 538 293 L 534 295 L 525 296 L 523 298 L 518 300 L 514 304 L 509 307 L 496 322 L 496 324 L 492 330 L 491 338 L 488 344 L 488 353 L 487 354 L 487 367 L 488 368 L 488 377 L 491 383 L 491 387 L 492 388 L 492 390 L 495 393 L 497 398 L 499 399 L 500 402 L 503 405 L 503 406 L 510 413 L 514 414 L 517 417 L 521 417 L 525 421 L 533 422 L 536 424 L 539 424 L 540 425 L 560 425 L 569 421 L 573 421 L 576 418 L 578 418 L 581 416 L 585 407 L 585 404 L 584 403 L 584 394 L 582 391 L 582 388 L 580 386 L 577 386 L 573 388 L 570 388 L 565 392 L 542 392 L 541 391 L 539 391 L 537 389 L 533 387 L 526 379 L 525 377 L 525 373 L 522 369 L 522 363 L 521 362 L 521 352 L 522 351 L 522 346 L 524 344 L 525 340 L 529 335 L 530 332 L 538 325 L 540 325 L 544 322 L 558 322 L 564 325 L 570 325 L 574 330 L 578 330 L 581 328 L 581 319 L 582 318 L 582 314 L 584 311 L 584 307 L 585 306 L 585 304 L 584 303 L 584 301 L 580 296 L 572 295 L 566 292 Z M 233 292 L 229 295 L 227 295 L 226 296 L 222 296 L 218 300 L 215 300 L 212 303 L 211 303 L 206 309 L 205 309 L 204 313 L 200 318 L 199 328 L 197 331 L 197 341 L 199 344 L 200 348 L 203 351 L 204 355 L 210 361 L 211 361 L 214 364 L 218 365 L 222 369 L 226 369 L 232 373 L 237 373 L 241 375 L 243 377 L 246 377 L 252 383 L 252 387 L 249 391 L 241 395 L 237 395 L 236 394 L 230 394 L 229 393 L 220 392 L 219 391 L 215 390 L 213 388 L 202 387 L 200 388 L 200 393 L 199 394 L 198 398 L 196 400 L 196 408 L 195 410 L 196 411 L 196 414 L 199 417 L 201 418 L 204 418 L 208 421 L 219 422 L 220 423 L 226 424 L 227 425 L 238 425 L 239 424 L 247 425 L 252 422 L 260 421 L 264 418 L 268 417 L 272 413 L 273 413 L 277 409 L 278 406 L 280 405 L 283 398 L 285 396 L 285 389 L 286 388 L 286 372 L 285 371 L 285 368 L 284 366 L 281 363 L 280 360 L 276 356 L 275 356 L 271 352 L 268 351 L 264 348 L 260 348 L 256 345 L 252 344 L 246 340 L 242 340 L 234 336 L 231 332 L 231 328 L 236 322 L 239 322 L 240 321 L 247 321 L 248 322 L 259 322 L 264 325 L 266 325 L 269 328 L 273 328 L 277 324 L 278 321 L 281 318 L 281 316 L 282 315 L 282 302 L 280 300 L 276 299 L 274 297 L 272 296 L 269 296 L 268 295 L 259 295 L 258 294 L 255 294 L 251 292 Z M 211 277 L 211 280 L 217 285 L 227 285 L 231 282 L 236 281 L 239 278 L 241 278 L 242 277 L 247 277 L 251 274 L 254 274 L 255 273 L 260 273 L 268 269 L 275 269 L 277 267 L 281 265 L 289 265 L 293 262 L 295 262 L 296 261 L 303 261 L 307 258 L 310 258 L 311 257 L 317 257 L 325 253 L 336 253 L 339 250 L 343 250 L 344 249 L 352 249 L 357 246 L 362 246 L 363 245 L 372 245 L 377 242 L 381 242 L 382 241 L 392 241 L 393 240 L 399 239 L 400 238 L 403 238 L 404 237 L 417 237 L 422 234 L 429 234 L 430 233 L 445 233 L 446 232 L 449 232 L 453 230 L 458 230 L 459 229 L 477 229 L 483 226 L 490 226 L 491 225 L 514 225 L 515 224 L 518 224 L 522 222 L 534 222 L 535 221 L 569 221 L 570 220 L 581 219 L 582 218 L 597 218 L 598 217 L 736 217 L 737 218 L 766 218 L 767 219 L 775 220 L 776 221 L 811 221 L 812 222 L 825 222 L 826 223 L 830 223 L 831 224 L 835 224 L 836 225 L 858 225 L 859 226 L 867 226 L 870 228 L 873 228 L 874 229 L 890 229 L 891 230 L 897 230 L 902 233 L 923 233 L 924 234 L 928 234 L 929 235 L 935 236 L 936 237 L 949 237 L 950 238 L 955 238 L 962 241 L 975 241 L 976 242 L 980 242 L 985 245 L 997 245 L 998 246 L 1002 246 L 1004 248 L 1006 248 L 1007 249 L 1018 249 L 1019 250 L 1023 250 L 1024 251 L 1026 251 L 1029 253 L 1038 253 L 1039 254 L 1043 254 L 1049 257 L 1057 257 L 1058 258 L 1062 258 L 1066 261 L 1075 261 L 1076 262 L 1079 262 L 1084 265 L 1091 265 L 1092 266 L 1095 266 L 1099 269 L 1112 270 L 1116 273 L 1126 274 L 1130 277 L 1137 277 L 1138 278 L 1140 278 L 1144 281 L 1154 282 L 1157 285 L 1166 285 L 1167 286 L 1170 286 L 1171 287 L 1175 287 L 1178 284 L 1177 281 L 1172 276 L 1168 275 L 1165 272 L 1161 271 L 1157 268 L 1151 267 L 1147 264 L 1142 264 L 1141 263 L 1139 263 L 1137 261 L 1133 260 L 1127 256 L 1123 256 L 1122 255 L 1120 255 L 1116 252 L 1110 252 L 1109 251 L 1107 251 L 1103 248 L 1093 247 L 1089 244 L 1082 244 L 1081 243 L 1078 243 L 1074 240 L 1069 240 L 1068 239 L 1065 239 L 1061 236 L 1055 236 L 1054 235 L 1051 235 L 1046 232 L 1038 232 L 1030 228 L 1020 228 L 1019 227 L 1016 227 L 1011 224 L 999 224 L 998 223 L 993 223 L 988 220 L 976 220 L 967 216 L 954 216 L 953 215 L 950 215 L 945 212 L 930 212 L 929 211 L 923 211 L 917 208 L 900 208 L 899 207 L 893 207 L 892 206 L 886 205 L 885 204 L 866 204 L 865 203 L 857 203 L 856 202 L 848 201 L 847 200 L 824 200 L 823 199 L 802 198 L 801 197 L 797 197 L 796 196 L 764 196 L 763 195 L 743 195 L 742 194 L 731 194 L 730 193 L 713 193 L 712 192 L 629 192 L 628 193 L 612 193 L 611 194 L 604 194 L 603 195 L 579 195 L 578 196 L 544 196 L 543 197 L 534 197 L 533 198 L 530 198 L 529 199 L 518 199 L 517 200 L 498 200 L 497 201 L 493 201 L 492 202 L 489 202 L 488 203 L 480 203 L 479 204 L 463 204 L 462 205 L 459 205 L 456 207 L 449 207 L 448 208 L 435 208 L 434 209 L 426 210 L 425 211 L 421 211 L 420 212 L 408 212 L 404 215 L 399 215 L 398 216 L 386 216 L 381 219 L 378 219 L 377 220 L 368 220 L 364 223 L 362 223 L 361 224 L 350 224 L 346 227 L 343 227 L 342 228 L 335 228 L 331 231 L 329 231 L 328 232 L 322 232 L 318 235 L 316 235 L 315 236 L 310 236 L 306 239 L 295 240 L 291 243 L 282 244 L 280 246 L 276 248 L 269 248 L 263 252 L 259 252 L 257 254 L 253 256 L 249 256 L 246 259 L 241 260 L 237 263 L 231 264 L 228 267 L 223 268 L 220 271 L 216 272 Z"
        fill="#909090"
        fill-rule="evenodd"
        clip-rule="evenodd"/>
</svg>
