<svg xmlns="http://www.w3.org/2000/svg"
     width="1252" height="728"
     viewBox="0 0 1252 728">
  <path d="M 766 460 L 764 463 L 764 513 L 767 516 L 768 520 L 772 524 L 774 528 L 779 530 L 782 533 L 789 533 L 790 534 L 810 533 L 813 530 L 817 529 L 825 522 L 825 520 L 829 514 L 829 467 L 830 466 L 830 463 L 828 460 L 813 460 L 812 461 L 812 488 L 811 489 L 811 492 L 812 493 L 812 502 L 811 503 L 811 509 L 809 513 L 802 519 L 793 519 L 790 516 L 788 516 L 785 513 L 781 506 L 781 461 L 780 460 Z M 980 461 L 980 524 L 979 525 L 979 527 L 980 528 L 980 532 L 981 533 L 1031 533 L 1033 531 L 1033 519 L 1032 517 L 1030 516 L 998 516 L 996 514 L 996 506 L 999 503 L 1024 502 L 1028 499 L 1029 495 L 1028 494 L 1027 490 L 1025 488 L 1014 488 L 1013 487 L 1002 487 L 1001 488 L 999 488 L 997 486 L 997 477 L 999 474 L 1025 474 L 1026 475 L 1027 474 L 1029 474 L 1033 470 L 1033 464 L 1032 462 L 1029 460 L 990 460 L 989 459 L 983 459 Z M 878 460 L 876 462 L 876 526 L 880 533 L 892 533 L 894 531 L 894 506 L 896 504 L 901 504 L 903 505 L 908 512 L 908 515 L 912 519 L 912 521 L 915 524 L 916 528 L 919 532 L 921 533 L 936 533 L 938 529 L 937 528 L 937 525 L 934 523 L 933 519 L 930 516 L 929 513 L 926 510 L 926 509 L 922 506 L 921 504 L 921 502 L 933 492 L 933 472 L 932 470 L 930 468 L 927 467 L 925 464 L 923 464 L 918 460 L 910 460 L 909 459 L 889 459 L 888 460 L 882 459 L 881 460 Z M 893 485 L 894 483 L 894 477 L 895 475 L 898 473 L 909 473 L 916 479 L 916 481 L 914 485 L 910 488 L 898 490 L 896 489 Z M 733 460 L 730 460 L 729 459 L 719 459 L 718 460 L 670 460 L 668 462 L 668 472 L 669 474 L 692 474 L 693 475 L 693 481 L 692 482 L 692 484 L 693 485 L 693 521 L 692 522 L 692 528 L 694 532 L 696 533 L 707 533 L 709 532 L 709 523 L 710 522 L 710 485 L 711 484 L 711 482 L 710 481 L 710 477 L 715 473 L 717 473 L 718 474 L 721 474 L 722 473 L 724 474 L 733 473 L 736 469 L 736 465 Z M 619 459 L 618 460 L 614 461 L 613 463 L 613 466 L 615 470 L 615 528 L 616 529 L 617 533 L 632 533 L 633 532 L 633 461 L 629 459 L 627 460 L 625 459 Z M 504 460 L 504 462 L 503 463 L 503 468 L 504 469 L 504 479 L 503 480 L 503 486 L 504 487 L 504 492 L 503 493 L 503 495 L 504 496 L 504 519 L 503 520 L 503 529 L 504 530 L 504 532 L 505 533 L 516 533 L 518 530 L 518 497 L 519 496 L 519 491 L 521 489 L 522 489 L 525 492 L 528 499 L 536 508 L 536 510 L 539 513 L 540 516 L 544 520 L 544 521 L 547 523 L 548 527 L 553 533 L 567 533 L 569 531 L 569 461 L 566 459 L 555 459 L 552 461 L 552 502 L 550 503 L 549 502 L 549 499 L 545 493 L 545 490 L 537 482 L 536 479 L 534 478 L 532 473 L 521 460 L 519 460 L 518 459 L 507 459 L 506 460 Z M 401 460 L 400 461 L 400 532 L 401 533 L 416 533 L 417 532 L 417 516 L 418 515 L 417 513 L 417 507 L 419 505 L 424 505 L 427 507 L 429 513 L 432 516 L 432 518 L 436 522 L 437 525 L 439 526 L 440 528 L 440 531 L 442 533 L 458 533 L 460 532 L 460 529 L 458 527 L 456 521 L 453 518 L 453 517 L 449 514 L 449 511 L 444 505 L 444 502 L 450 497 L 450 496 L 453 493 L 454 490 L 456 489 L 457 487 L 457 474 L 453 469 L 453 468 L 452 468 L 448 464 L 445 463 L 441 460 L 430 460 L 429 459 L 421 459 L 420 460 L 417 460 L 416 459 L 407 460 L 406 459 L 404 459 L 403 460 Z M 417 479 L 418 478 L 418 476 L 420 474 L 432 474 L 439 479 L 439 483 L 438 485 L 434 488 L 426 489 L 425 490 L 419 490 L 417 486 L 417 483 L 418 482 L 417 481 Z M 294 459 L 292 461 L 291 505 L 292 506 L 292 515 L 295 518 L 296 521 L 304 529 L 307 530 L 311 533 L 315 533 L 316 534 L 328 534 L 329 533 L 336 533 L 339 530 L 343 529 L 354 519 L 354 515 L 357 509 L 357 462 L 356 460 L 353 460 L 352 459 L 342 459 L 340 461 L 339 463 L 339 466 L 340 467 L 340 484 L 339 485 L 340 486 L 340 502 L 339 503 L 339 507 L 337 509 L 336 513 L 333 516 L 328 516 L 323 519 L 320 519 L 318 517 L 315 516 L 309 509 L 309 462 L 307 460 L 298 460 L 297 459 Z M 243 460 L 199 460 L 198 459 L 197 460 L 193 460 L 192 461 L 192 531 L 194 533 L 207 533 L 209 531 L 209 519 L 210 518 L 209 507 L 212 503 L 214 503 L 215 504 L 224 504 L 227 502 L 239 503 L 241 501 L 241 498 L 242 496 L 241 495 L 241 490 L 238 488 L 212 488 L 210 486 L 210 478 L 214 475 L 219 475 L 220 474 L 243 474 L 245 472 L 245 462 Z M 194 423 L 194 425 L 197 429 L 1030 429 L 1033 426 L 1033 419 L 1030 416 L 204 416 L 198 421 L 196 421 Z M 785 197 L 785 200 L 787 203 L 787 297 L 786 298 L 786 307 L 787 308 L 787 313 L 786 314 L 787 316 L 787 324 L 786 325 L 786 327 L 787 328 L 787 330 L 786 331 L 786 358 L 787 359 L 787 361 L 786 362 L 786 369 L 787 370 L 787 384 L 786 386 L 787 388 L 790 390 L 836 390 L 838 389 L 838 388 L 840 386 L 840 383 L 841 382 L 841 371 L 840 370 L 840 364 L 841 363 L 841 330 L 844 327 L 845 327 L 848 329 L 850 329 L 853 332 L 853 333 L 855 334 L 856 338 L 859 341 L 861 345 L 863 346 L 864 349 L 867 352 L 868 356 L 875 364 L 877 369 L 880 372 L 880 374 L 883 377 L 884 380 L 887 383 L 888 387 L 890 389 L 892 389 L 893 390 L 949 390 L 950 389 L 952 389 L 954 387 L 954 385 L 952 381 L 946 375 L 944 370 L 941 367 L 938 362 L 933 357 L 933 355 L 926 346 L 925 342 L 918 334 L 917 330 L 913 326 L 913 324 L 909 320 L 909 317 L 912 314 L 916 314 L 917 313 L 919 313 L 922 310 L 925 309 L 933 301 L 933 300 L 941 291 L 942 285 L 945 282 L 945 272 L 946 271 L 946 250 L 945 249 L 945 239 L 942 235 L 940 227 L 938 225 L 937 222 L 933 218 L 933 217 L 922 207 L 920 207 L 917 204 L 915 204 L 912 201 L 910 200 L 907 200 L 901 196 L 889 196 L 888 195 L 882 195 L 881 194 L 819 194 L 818 193 L 815 193 L 814 194 L 790 194 Z M 844 237 L 850 237 L 851 238 L 864 238 L 870 241 L 876 241 L 884 247 L 884 248 L 888 253 L 888 260 L 889 261 L 889 265 L 888 266 L 888 274 L 881 283 L 877 284 L 872 287 L 862 287 L 861 288 L 856 288 L 855 287 L 853 287 L 852 288 L 843 288 L 841 286 L 841 239 Z M 638 193 L 636 195 L 635 198 L 632 201 L 632 206 L 631 207 L 631 210 L 628 213 L 628 218 L 624 223 L 624 230 L 620 235 L 620 240 L 619 241 L 619 243 L 616 247 L 616 252 L 614 256 L 612 258 L 611 266 L 608 269 L 608 273 L 607 274 L 607 276 L 604 279 L 604 284 L 603 285 L 603 287 L 600 290 L 600 298 L 598 302 L 596 304 L 596 309 L 592 314 L 592 319 L 588 325 L 588 330 L 587 331 L 586 335 L 584 337 L 583 345 L 580 349 L 580 353 L 578 357 L 576 359 L 576 363 L 575 364 L 575 366 L 573 368 L 571 376 L 568 380 L 568 384 L 567 385 L 568 389 L 570 390 L 620 390 L 621 389 L 623 389 L 625 387 L 625 380 L 626 379 L 626 377 L 629 373 L 629 368 L 630 367 L 630 365 L 633 361 L 633 356 L 634 355 L 634 353 L 638 349 L 698 349 L 701 351 L 703 355 L 704 363 L 707 367 L 707 369 L 708 370 L 708 376 L 711 380 L 711 384 L 712 385 L 712 388 L 715 390 L 767 390 L 768 389 L 770 389 L 771 386 L 769 382 L 769 378 L 767 376 L 765 372 L 765 367 L 762 363 L 762 361 L 761 360 L 761 355 L 758 351 L 758 349 L 757 348 L 757 344 L 754 340 L 754 338 L 753 337 L 753 331 L 751 329 L 750 325 L 749 324 L 749 321 L 746 317 L 746 315 L 745 314 L 745 309 L 742 306 L 741 298 L 738 294 L 738 292 L 737 291 L 737 285 L 734 281 L 734 279 L 733 278 L 733 274 L 730 270 L 729 264 L 726 261 L 726 259 L 725 258 L 725 253 L 722 250 L 722 248 L 721 247 L 721 241 L 718 238 L 717 230 L 715 228 L 713 224 L 713 219 L 709 213 L 709 207 L 706 203 L 705 197 L 699 193 Z M 667 249 L 669 249 L 671 251 L 671 253 L 672 254 L 672 262 L 676 267 L 676 272 L 679 276 L 679 278 L 680 279 L 680 284 L 683 289 L 683 291 L 684 292 L 684 296 L 687 299 L 687 301 L 688 302 L 686 306 L 684 306 L 683 305 L 672 305 L 671 304 L 669 305 L 658 304 L 657 305 L 654 305 L 652 306 L 650 304 L 650 300 L 653 297 L 653 292 L 657 286 L 657 279 L 658 278 L 659 274 L 661 272 L 661 266 L 665 258 L 665 251 Z M 209 195 L 207 199 L 207 236 L 208 237 L 211 237 L 212 238 L 215 238 L 216 237 L 287 237 L 292 240 L 292 243 L 288 248 L 288 249 L 277 262 L 276 265 L 268 274 L 267 277 L 264 280 L 264 282 L 253 294 L 252 298 L 247 303 L 240 314 L 235 319 L 235 320 L 232 322 L 231 325 L 227 329 L 227 330 L 225 331 L 224 334 L 216 343 L 216 345 L 208 354 L 207 358 L 205 360 L 205 362 L 204 363 L 204 384 L 205 385 L 205 387 L 207 389 L 209 389 L 210 390 L 363 390 L 364 389 L 367 389 L 368 390 L 373 390 L 375 389 L 377 387 L 377 362 L 375 358 L 375 349 L 371 346 L 368 346 L 367 347 L 284 347 L 283 346 L 283 345 L 289 339 L 289 336 L 297 327 L 298 324 L 301 321 L 301 319 L 305 315 L 306 312 L 313 304 L 314 301 L 320 294 L 321 291 L 325 287 L 326 284 L 337 271 L 338 268 L 341 265 L 341 263 L 349 254 L 350 251 L 357 242 L 358 238 L 361 236 L 362 233 L 369 226 L 369 224 L 370 223 L 370 202 L 373 199 L 372 196 L 368 193 L 347 193 L 346 194 L 340 194 L 339 193 L 335 193 L 334 194 L 325 194 L 324 193 L 320 193 L 319 194 L 306 194 L 305 193 L 299 193 L 298 194 L 292 194 L 291 193 L 279 193 L 278 194 L 275 194 L 274 193 L 266 193 L 265 194 L 259 194 L 258 193 L 256 194 L 217 193 L 216 194 L 211 194 Z M 974 192 L 969 195 L 968 197 L 968 389 L 971 391 L 973 390 L 1022 390 L 1025 388 L 1025 386 L 1026 385 L 1026 381 L 1025 380 L 1025 196 L 1024 194 L 1022 193 L 1016 193 L 1015 194 L 998 193 L 996 194 L 995 193 L 977 193 L 976 192 Z M 559 192 L 556 192 L 555 193 L 513 193 L 511 192 L 505 197 L 505 318 L 504 319 L 504 328 L 500 333 L 500 335 L 497 339 L 496 342 L 494 344 L 492 344 L 490 346 L 486 347 L 485 348 L 465 348 L 464 347 L 462 347 L 460 345 L 456 344 L 449 336 L 446 331 L 446 327 L 445 326 L 445 315 L 444 314 L 444 309 L 443 308 L 443 198 L 442 196 L 439 193 L 417 193 L 416 194 L 399 194 L 398 193 L 392 193 L 388 195 L 387 197 L 387 284 L 388 285 L 388 331 L 392 340 L 392 345 L 396 351 L 396 355 L 400 359 L 400 360 L 404 364 L 404 365 L 408 369 L 408 370 L 420 381 L 422 381 L 426 385 L 429 385 L 430 386 L 432 386 L 436 389 L 444 390 L 450 393 L 464 393 L 465 394 L 475 394 L 476 393 L 499 393 L 504 390 L 514 389 L 520 385 L 523 385 L 526 382 L 531 380 L 534 377 L 535 377 L 545 367 L 546 364 L 553 355 L 553 351 L 557 346 L 557 341 L 561 333 L 561 201 L 562 200 L 562 198 L 561 197 L 561 194 Z"
        fill="#909090"
        fill-rule="evenodd"
        clip-rule="evenodd"/>
</svg>
