<svg xmlns="http://www.w3.org/2000/svg"
     width="1284" height="648"
     viewBox="0 0 1284 648">
  <path d="M 1086 360 L 1083 360 L 1082 359 L 1074 359 L 1072 360 L 1064 368 L 1063 368 L 1061 366 L 1061 361 L 1058 359 L 1040 359 L 1039 360 L 1036 360 L 1034 362 L 1034 367 L 1033 368 L 1033 393 L 1034 394 L 1034 409 L 1033 410 L 1033 419 L 1034 420 L 1034 433 L 1033 434 L 1033 443 L 1036 448 L 1038 449 L 1051 449 L 1052 448 L 1054 448 L 1055 449 L 1060 449 L 1062 447 L 1062 444 L 1063 443 L 1063 441 L 1062 440 L 1062 408 L 1063 407 L 1065 396 L 1067 392 L 1071 389 L 1087 389 L 1089 388 L 1092 384 L 1092 373 L 1091 372 L 1092 365 L 1090 362 Z M 969 360 L 965 364 L 963 364 L 958 369 L 957 369 L 955 374 L 952 377 L 951 381 L 948 384 L 948 389 L 945 395 L 945 405 L 947 409 L 948 420 L 951 423 L 952 429 L 955 432 L 956 435 L 962 441 L 966 442 L 969 445 L 975 446 L 979 449 L 1008 449 L 1012 446 L 1016 445 L 1020 441 L 1021 441 L 1021 440 L 1024 437 L 1025 435 L 1025 421 L 1024 420 L 1014 419 L 1013 420 L 1008 420 L 1005 423 L 1002 423 L 1001 424 L 987 424 L 977 417 L 977 416 L 975 414 L 975 411 L 976 410 L 1022 410 L 1023 411 L 1027 411 L 1029 408 L 1029 395 L 1026 388 L 1025 378 L 1017 369 L 1017 368 L 1016 368 L 1012 364 L 1009 363 L 1005 360 L 999 359 L 994 356 L 985 356 L 984 357 L 979 357 L 973 360 Z M 977 387 L 983 381 L 991 381 L 992 382 L 994 382 L 1000 388 L 1000 389 L 997 392 L 995 392 L 991 390 L 982 390 L 981 391 L 979 391 L 977 389 Z M 673 365 L 664 375 L 663 379 L 660 382 L 660 386 L 659 387 L 659 389 L 656 393 L 656 415 L 658 417 L 660 421 L 660 427 L 663 430 L 664 434 L 668 438 L 668 439 L 673 444 L 673 445 L 678 446 L 682 449 L 690 449 L 691 450 L 694 450 L 695 449 L 704 449 L 706 447 L 712 445 L 715 441 L 718 441 L 720 443 L 720 446 L 722 448 L 724 448 L 725 449 L 728 449 L 729 448 L 736 448 L 737 449 L 739 449 L 741 448 L 745 444 L 745 442 L 746 441 L 746 438 L 745 437 L 745 389 L 746 388 L 745 376 L 746 375 L 746 362 L 744 359 L 737 359 L 734 357 L 725 356 L 724 357 L 722 357 L 720 359 L 720 361 L 717 364 L 715 364 L 710 360 L 707 360 L 702 356 L 691 356 L 686 359 L 680 360 L 677 363 Z M 700 382 L 706 382 L 709 385 L 710 385 L 716 392 L 716 413 L 711 419 L 711 420 L 705 424 L 699 424 L 698 423 L 695 423 L 689 418 L 689 415 L 686 410 L 686 397 L 689 393 L 689 391 L 696 384 Z M 933 328 L 912 328 L 909 330 L 908 332 L 908 359 L 909 360 L 909 363 L 908 364 L 905 363 L 902 360 L 899 360 L 897 359 L 895 357 L 892 357 L 891 356 L 882 356 L 878 359 L 871 360 L 867 364 L 866 364 L 856 375 L 856 377 L 854 381 L 852 383 L 851 390 L 848 393 L 848 417 L 850 420 L 852 428 L 855 431 L 856 435 L 863 442 L 864 442 L 867 445 L 871 446 L 874 449 L 896 449 L 899 446 L 902 446 L 904 445 L 905 443 L 908 441 L 909 441 L 912 444 L 912 446 L 914 448 L 917 448 L 918 449 L 930 449 L 931 448 L 935 447 L 938 443 L 938 412 L 937 411 L 937 331 Z M 892 382 L 894 383 L 895 382 L 898 382 L 907 390 L 908 392 L 908 404 L 909 405 L 909 407 L 908 408 L 908 414 L 907 416 L 902 421 L 901 421 L 899 423 L 896 423 L 895 424 L 888 423 L 885 420 L 884 420 L 881 417 L 881 414 L 878 410 L 878 398 L 884 388 L 888 384 Z M 582 329 L 580 332 L 580 444 L 584 447 L 591 447 L 592 446 L 608 446 L 609 447 L 636 447 L 638 446 L 639 447 L 644 447 L 645 448 L 652 448 L 656 446 L 658 443 L 658 440 L 657 439 L 657 432 L 656 431 L 655 425 L 651 420 L 615 420 L 613 418 L 613 331 L 609 328 L 584 328 Z M 837 327 L 832 327 L 831 328 L 813 328 L 811 329 L 811 331 L 810 332 L 810 358 L 812 362 L 810 364 L 808 364 L 804 360 L 800 359 L 797 357 L 786 356 L 782 359 L 777 359 L 776 360 L 773 360 L 769 364 L 768 364 L 768 365 L 760 374 L 760 377 L 759 379 L 757 380 L 755 388 L 752 392 L 752 418 L 755 423 L 756 428 L 760 433 L 760 435 L 765 440 L 765 441 L 766 441 L 770 445 L 772 445 L 778 449 L 802 449 L 804 447 L 808 446 L 810 443 L 813 443 L 816 446 L 820 447 L 821 448 L 836 448 L 841 445 L 841 443 L 842 442 L 842 438 L 841 437 L 841 330 Z M 795 382 L 798 382 L 799 383 L 801 383 L 803 385 L 805 385 L 808 388 L 809 391 L 811 393 L 811 413 L 808 418 L 801 424 L 793 424 L 786 419 L 785 417 L 785 414 L 782 410 L 782 396 L 784 394 L 786 389 Z M 1077 228 L 1070 228 L 1069 227 L 1053 227 L 1052 228 L 1048 228 L 1045 231 L 1042 232 L 1039 236 L 1038 236 L 1035 233 L 1035 232 L 1034 232 L 1030 228 L 1010 228 L 1008 230 L 1007 232 L 1007 309 L 1006 310 L 1006 315 L 1009 319 L 1011 320 L 1027 320 L 1029 321 L 1030 320 L 1034 320 L 1037 318 L 1037 316 L 1038 315 L 1038 294 L 1037 293 L 1037 277 L 1038 276 L 1038 264 L 1041 261 L 1042 258 L 1048 253 L 1054 253 L 1056 254 L 1062 260 L 1062 262 L 1063 263 L 1063 277 L 1064 278 L 1064 317 L 1068 319 L 1074 319 L 1075 320 L 1081 320 L 1082 319 L 1084 320 L 1090 320 L 1092 319 L 1093 317 L 1093 250 L 1090 246 L 1089 241 L 1082 233 L 1082 232 L 1081 232 Z M 922 235 L 916 241 L 916 242 L 909 250 L 908 252 L 908 260 L 906 264 L 904 266 L 904 277 L 905 278 L 906 292 L 908 296 L 908 299 L 912 303 L 912 305 L 915 308 L 915 309 L 919 313 L 922 314 L 925 317 L 927 318 L 930 318 L 932 320 L 934 320 L 935 321 L 954 321 L 959 317 L 962 317 L 965 313 L 967 313 L 969 317 L 970 317 L 975 321 L 981 321 L 982 320 L 986 320 L 990 318 L 994 318 L 997 316 L 997 309 L 996 308 L 996 248 L 995 247 L 995 235 L 992 228 L 972 228 L 969 231 L 967 232 L 964 232 L 959 228 L 938 227 L 937 228 L 931 228 L 923 235 Z M 948 253 L 954 253 L 956 254 L 960 258 L 961 261 L 962 261 L 964 264 L 964 272 L 965 273 L 965 277 L 964 278 L 964 285 L 962 289 L 959 292 L 954 295 L 947 295 L 942 292 L 937 286 L 937 282 L 936 281 L 936 270 L 937 269 L 937 263 L 938 261 L 944 255 Z M 800 228 L 798 227 L 785 228 L 778 235 L 777 235 L 775 233 L 775 231 L 771 228 L 753 228 L 748 232 L 748 234 L 747 235 L 747 239 L 748 240 L 748 275 L 747 276 L 748 286 L 747 287 L 747 314 L 749 318 L 751 319 L 768 319 L 769 320 L 773 320 L 777 317 L 777 300 L 778 299 L 777 297 L 777 276 L 778 275 L 778 269 L 781 263 L 788 257 L 791 257 L 792 258 L 795 258 L 796 259 L 800 259 L 801 258 L 801 256 L 804 249 L 804 242 L 803 241 L 803 238 L 802 237 L 802 231 Z M 526 217 L 522 215 L 518 215 L 517 216 L 515 215 L 491 215 L 490 216 L 486 216 L 484 218 L 484 221 L 483 222 L 483 235 L 484 236 L 484 241 L 483 242 L 484 244 L 484 354 L 483 355 L 483 360 L 484 361 L 484 392 L 483 393 L 483 395 L 484 396 L 484 410 L 481 412 L 437 412 L 436 411 L 433 411 L 432 412 L 273 412 L 271 415 L 271 444 L 275 446 L 458 446 L 459 447 L 465 447 L 466 446 L 505 446 L 507 447 L 508 446 L 524 446 L 526 445 L 528 442 L 528 296 L 527 295 L 527 291 L 528 290 L 528 228 L 527 227 L 527 220 L 526 219 Z M 196 444 L 199 446 L 234 446 L 235 445 L 237 445 L 239 441 L 239 438 L 238 437 L 238 255 L 240 253 L 460 253 L 462 250 L 462 246 L 463 245 L 463 228 L 462 227 L 463 225 L 463 222 L 462 221 L 462 218 L 458 215 L 407 215 L 406 216 L 384 216 L 383 215 L 359 215 L 358 216 L 354 216 L 353 215 L 343 215 L 342 216 L 296 216 L 295 215 L 294 216 L 291 216 L 290 215 L 261 215 L 260 216 L 256 216 L 255 215 L 241 215 L 240 216 L 238 216 L 237 215 L 209 215 L 208 216 L 204 216 L 203 215 L 199 215 L 196 217 L 196 229 L 195 230 L 195 232 L 196 233 Z M 732 205 L 727 205 L 723 207 L 706 207 L 704 209 L 703 211 L 703 281 L 701 283 L 700 287 L 697 291 L 690 293 L 689 294 L 686 294 L 685 295 L 683 295 L 678 292 L 676 292 L 669 285 L 669 279 L 667 276 L 667 269 L 666 268 L 666 262 L 667 261 L 667 257 L 666 256 L 666 252 L 667 251 L 667 244 L 666 243 L 666 214 L 667 213 L 667 211 L 666 209 L 662 207 L 659 207 L 658 208 L 645 208 L 644 207 L 641 207 L 640 208 L 637 208 L 636 209 L 636 231 L 635 232 L 635 240 L 636 241 L 636 244 L 635 245 L 636 291 L 639 295 L 640 299 L 650 312 L 655 314 L 657 317 L 663 318 L 667 321 L 700 321 L 704 318 L 710 317 L 715 313 L 716 313 L 717 311 L 719 309 L 720 309 L 721 307 L 723 305 L 724 305 L 729 299 L 730 294 L 733 290 L 734 277 L 735 276 L 735 271 L 736 270 L 736 265 L 735 264 L 735 259 L 736 258 L 736 233 L 735 232 L 735 222 L 736 221 L 736 217 L 735 216 L 735 210 L 734 209 L 734 207 Z M 810 195 L 808 197 L 808 244 L 809 245 L 809 253 L 808 254 L 808 315 L 810 317 L 820 317 L 821 318 L 823 318 L 824 317 L 831 317 L 832 318 L 837 318 L 838 317 L 838 314 L 839 313 L 843 313 L 847 318 L 854 321 L 874 321 L 876 319 L 880 317 L 882 317 L 886 313 L 887 313 L 893 306 L 893 304 L 897 299 L 897 294 L 901 286 L 901 262 L 900 261 L 900 258 L 897 253 L 897 250 L 895 248 L 893 244 L 893 242 L 884 232 L 882 232 L 876 228 L 873 228 L 872 227 L 854 227 L 853 228 L 848 228 L 845 231 L 843 232 L 840 232 L 838 230 L 838 200 L 837 199 L 837 197 L 835 195 L 818 195 L 817 194 Z M 852 253 L 856 253 L 857 254 L 861 255 L 868 263 L 868 265 L 871 271 L 871 281 L 868 285 L 867 289 L 865 291 L 858 295 L 854 295 L 851 292 L 847 292 L 841 285 L 841 264 L 842 262 L 850 254 Z"
        fill="#909090"
        fill-rule="evenodd"
        clip-rule="evenodd"/>
</svg>
